<svg xmlns="http://www.w3.org/2000/svg" width="460" height="214" viewBox="0 0 460 214" role="img" aria-labelledby="title desc"><title id="title">IA · ACCIDENTES</title><desc id="desc">HTML Abrir repositorio en GitHub →</desc>
<defs><linearGradient id="stone" x2="0" y2="1"><stop stop-color="#252126"/><stop offset=".55" stop-color="#151419"/><stop offset="1" stop-color="#201517"/></linearGradient><linearGradient id="gold"><stop stop-color="#6e4825"/><stop offset=".4" stop-color="#ebcb86"/><stop offset=".6" stop-color="#c39a54"/><stop offset="1" stop-color="#6e4825"/></linearGradient></defs>
<path d="M22 3 H438 L457 22 V192 L438 211 H22 L3 192 V22 Z" fill="url(#stone)" stroke="url(#gold)" stroke-width="2"/>
<path d="M28 12 H432 L448 28 V186 L432 202 H28 L12 186 V28 Z" fill="none" stroke="#57402b"/>
<path d="M16 32 H444" stroke="#544338" opacity=".16"/>
<path d="M16 54 H444" stroke="#544338" opacity=".16"/>
<path d="M16 76 H444" stroke="#544338" opacity=".16"/>
<path d="M16 98 H444" stroke="#544338" opacity=".16"/>
<path d="M16 120 H444" stroke="#544338" opacity=".16"/>
<path d="M16 142 H444" stroke="#544338" opacity=".16"/>
<path d="M16 164 H444" stroke="#544338" opacity=".16"/>
<path d="M16 186 H444" stroke="#544338" opacity=".16"/>
<path d="M42 65 q-16 -13 -17 0 q1 13 17 0 q16 -13 17 0 q-1 13 -17 0" fill="none" stroke="#b18b4f" opacity=".36"/>
<path d="M42 90 q-16 -13 -17 0 q1 13 17 0 q16 -13 17 0 q-1 13 -17 0" fill="none" stroke="#b18b4f" opacity=".36"/>
<path d="M42 115 q-16 -13 -17 0 q1 13 17 0 q16 -13 17 0 q-1 13 -17 0" fill="none" stroke="#b18b4f" opacity=".36"/>
<path d="M42 140 q-16 -13 -17 0 q1 13 17 0 q16 -13 17 0 q-1 13 -17 0" fill="none" stroke="#b18b4f" opacity=".36"/>
<path d="M42 165 q-16 -13 -17 0 q1 13 17 0 q16 -13 17 0 q-1 13 -17 0" fill="none" stroke="#b18b4f" opacity=".36"/>
<path d="M418 65 q-16 -13 -17 0 q1 13 17 0 q16 -13 17 0 q-1 13 -17 0" fill="none" stroke="#b18b4f" opacity=".36"/>
<path d="M418 90 q-16 -13 -17 0 q1 13 17 0 q16 -13 17 0 q-1 13 -17 0" fill="none" stroke="#b18b4f" opacity=".36"/>
<path d="M418 115 q-16 -13 -17 0 q1 13 17 0 q16 -13 17 0 q-1 13 -17 0" fill="none" stroke="#b18b4f" opacity=".36"/>
<path d="M418 140 q-16 -13 -17 0 q1 13 17 0 q16 -13 17 0 q-1 13 -17 0" fill="none" stroke="#b18b4f" opacity=".36"/>
<path d="M418 165 q-16 -13 -17 0 q1 13 17 0 q16 -13 17 0 q-1 13 -17 0" fill="none" stroke="#b18b4f" opacity=".36"/>
<g opacity=".48"><path d="M42 188 V80 Q42 46 67 27 Q92 46 92 80 V188 Z" fill="#291b25" stroke="#947047"/><path d="M48 186 V82 Q48 52 67 37 Q86 52 86 82 V186 M67 38 V186 M44 91 H90" fill="none" stroke="#8d673b"/><path d="M47 76 L67 56 L87 76 L67 96 Z" fill="#682d32" stroke="#b5894b"/></g>
<g opacity=".48"><path d="M368 188 V80 Q368 46 393 27 Q418 46 418 80 V188 Z" fill="#291b25" stroke="#947047"/><path d="M374 186 V82 Q374 52 393 37 Q412 52 412 82 V186 M393 38 V186 M370 91 H416" fill="none" stroke="#8d673b"/><path d="M373 76 L393 56 L413 76 L393 96 Z" fill="#682d32" stroke="#b5894b"/></g>
<path d="M88 192 V85 Q88 35 230.0 15 Q372 35 372 85 V192" fill="none" stroke="#7e5e37" opacity=".45"/>
<rect x="65" y="22" width="330" height="170" rx="20" fill="#141216" opacity=".77"/>
<path d="M23 61 V153 M31 61 V153" stroke="#b49157" opacity=".5"/>
<g fill="#b89960" stroke="#715430"><path d="M20 182 h14 l-3 -7 h-8 Z"/><rect x="25" y="154" width="4" height="21"/><path d="M27 141 q-6 9 0 13 q6 -4 0 -13" fill="#f1ce85"/></g>
<path d="M429 61 V153 M437 61 V153" stroke="#b49157" opacity=".5"/>
<g fill="#b89960" stroke="#715430"><path d="M426 182 h14 l-3 -7 h-8 Z"/><rect x="431" y="154" width="4" height="21"/><path d="M433 141 q-6 9 0 13 q6 -4 0 -13" fill="#f1ce85"/></g>
<g transform="translate(230.0 197)" stroke="#b58b4c" fill="none"><circle r="9"/><circle r="12"/>
<ellipse cx="0" cy="-4" rx="2" ry="4" transform="rotate(0)"/>
<ellipse cx="0" cy="-4" rx="2" ry="4" transform="rotate(45)"/>
<ellipse cx="0" cy="-4" rx="2" ry="4" transform="rotate(90)"/>
<ellipse cx="0" cy="-4" rx="2" ry="4" transform="rotate(135)"/>
<ellipse cx="0" cy="-4" rx="2" ry="4" transform="rotate(180)"/>
<ellipse cx="0" cy="-4" rx="2" ry="4" transform="rotate(225)"/>
<ellipse cx="0" cy="-4" rx="2" ry="4" transform="rotate(270)"/>
<ellipse cx="0" cy="-4" rx="2" ry="4" transform="rotate(315)"/>
</g>
<g transform="translate(16 16) scale(1 1)" fill="none" stroke="#b38b4e"><path d="M0 42 V12 Q0 0 12 0 H42 M6 32 Q24 32 17 17 Q32 24 32 6 M3 3 L20 20 M10 5 Q25 5 25 15"/><path d="M8 8 l4 -4 4 4 -4 4 Z" fill="#b38b4e"/></g>
<g transform="translate(444 16) scale(-1 1)" fill="none" stroke="#b38b4e"><path d="M0 42 V12 Q0 0 12 0 H42 M6 32 Q24 32 17 17 Q32 24 32 6 M3 3 L20 20 M10 5 Q25 5 25 15"/><path d="M8 8 l4 -4 4 4 -4 4 Z" fill="#b38b4e"/></g>
<g transform="translate(16 198) scale(1 -1)" fill="none" stroke="#b38b4e"><path d="M0 42 V12 Q0 0 12 0 H42 M6 32 Q24 32 17 17 Q32 24 32 6 M3 3 L20 20 M10 5 Q25 5 25 15"/><path d="M8 8 l4 -4 4 4 -4 4 Z" fill="#b38b4e"/></g>
<g transform="translate(444 198) scale(-1 -1)" fill="none" stroke="#b38b4e"><path d="M0 42 V12 Q0 0 12 0 H42 M6 32 Q24 32 17 17 Q32 24 32 6 M3 3 L20 20 M10 5 Q25 5 25 15"/><path d="M8 8 l4 -4 4 4 -4 4 Z" fill="#b38b4e"/></g>
<text x="230.0" y="39" text-anchor="middle" font-family="Georgia,serif" font-size="14" letter-spacing="3" fill="#c19a62">LOS ARCHIVOS DEL REINO</text>
<text x="230.0" y="80" text-anchor="middle" font-family="Palatino Linotype,Palatino,Georgia,serif" font-size="30" letter-spacing="1.5" fill="#f1d9a0">IA · ACCIDENTES</text>
<path d="M55 100 H212.0 M248.0 100 H405" stroke="url(#gold)"/><path d="M230.0 92 l8 8 -8 8 -8 -8 Z" fill="#852d35" stroke="#c7a56a"/>
<text x="230.0" y="140" text-anchor="middle" font-family="Palatino Linotype,Palatino,Georgia,serif" font-size="23" fill="#ded5c3">HTML</text>
<text x="230.0" y="173" text-anchor="middle" font-family="Palatino Linotype,Palatino,Georgia,serif" font-size="23" fill="#ded5c3">Abrir repositorio en GitHub →</text>
</svg>